<?xml version="1.0" encoding="utf-8"?>
<!-- Generator: Adobe Illustrator 27.6.1, SVG Export Plug-In . SVG Version: 6.00 Build 0)  -->
<svg version="1.1" id="Layer_1" xmlns="http://www.w3.org/2000/svg" xmlns:xlink="http://www.w3.org/1999/xlink" x="0px" y="0px"
	 viewBox="0 0 180 180" style="enable-background:new 0 0 180 180;" xml:space="preserve">
<style type="text/css">
	.st0{clip-path:url(#SVGID_00000162336223275194833140000005535123834350168220_);}
	
		.st1{clip-path:url(#SVGID_00000144309175944630527480000010175141711619660460_);fill:url(#SVGID_00000137126627872585419700000007133695642716268435_);}
	.st2{opacity:0.6;clip-path:url(#SVGID_00000144309175944630527480000010175141711619660460_);}
	.st3{fill:url(#SVGID_00000052096462923244285050000002107662267561525930_);}
	.st4{fill:url(#SVGID_00000176763448405017736750000004099461844379952271_);}
	.st5{fill:url(#SVGID_00000014614134001292325370000018261412659570546844_);}
	
		.st6{opacity:0.2;clip-path:url(#SVGID_00000144309175944630527480000010175141711619660460_);fill:url(#SVGID_00000041297289686274422480000006667599818124584367_);}
	
		.st7{opacity:0.2;clip-path:url(#SVGID_00000144309175944630527480000010175141711619660460_);fill:url(#SVGID_00000047773924567940981060000011722718678488195475_);}
	
		.st8{opacity:0.2;clip-path:url(#SVGID_00000144309175944630527480000010175141711619660460_);fill:url(#SVGID_00000073000925591612580930000014648713646055813814_);}
	.st9{fill:#704C44;}
	.st10{fill:#FFFFFF;}
</style>
<g>
	<defs>
		<rect id="SVGID_1_" width="180" height="180"/>
	</defs>
	<clipPath id="SVGID_00000067200515335855708670000015757155518310400939_">
		<use xlink:href="#SVGID_1_"  style="overflow:visible;"/>
	</clipPath>
	<g style="clip-path:url(#SVGID_00000067200515335855708670000015757155518310400939_);">
		<defs>
			<rect id="SVGID_00000029763981969883402900000009593141310953360045_" x="-3.4" y="-441.6" width="186.9" height="633.2"/>
		</defs>
		<clipPath id="SVGID_00000088838895166016813620000007623206860015983796_">
			<use xlink:href="#SVGID_00000029763981969883402900000009593141310953360045_"  style="overflow:visible;"/>
		</clipPath>
		
			<linearGradient id="SVGID_00000106129369504876649760000013096914375883614608_" gradientUnits="userSpaceOnUse" x1="-2.7194" y1="-443.7628" x2="183.175" y2="195.4357">
			<stop  offset="0" style="stop-color:#996B4B"/>
			<stop  offset="6.585936e-02" style="stop-color:#A87755"/>
			<stop  offset="0.1531" style="stop-color:#BA8861"/>
			<stop  offset="0.199" style="stop-color:#C28F65"/>
			<stop  offset="0.5039" style="stop-color:#C19573"/>
			<stop  offset="1" style="stop-color:#996B4B"/>
		</linearGradient>
		
			<rect x="-3.4" y="-441.6" style="clip-path:url(#SVGID_00000088838895166016813620000007623206860015983796_);fill:url(#SVGID_00000106129369504876649760000013096914375883614608_);" width="186.9" height="633.2"/>
		<g style="opacity:0.6;clip-path:url(#SVGID_00000088838895166016813620000007623206860015983796_);">
			
				<linearGradient id="SVGID_00000066474088709397604890000003643228060840186793_" gradientUnits="userSpaceOnUse" x1="1737.4664" y1="-829.7586" x2="1927.7034" y2="-829.7586" gradientTransform="matrix(0.9525 -0.3044 0.3044 0.9525 -1451.6016 1386.7898)">
				<stop  offset="0" style="stop-color:#996B4B"/>
				<stop  offset="6.585936e-02" style="stop-color:#A87755"/>
				<stop  offset="0.1531" style="stop-color:#BA8861"/>
				<stop  offset="0.199" style="stop-color:#C28F65"/>
				<stop  offset="0.5039" style="stop-color:#C19573"/>
				<stop  offset="1" style="stop-color:#996B4B"/>
			</linearGradient>
			<path style="fill:url(#SVGID_00000066474088709397604890000003643228060840186793_);" d="M149.4,88.4L72.3,256.5l-55.4,17.7
				L94,106.1c4.8-17.6-1.2-36.4-15.3-48l-193.8-197.2l55.4-17.7L134.1,40.4C148.2,52,154.2,70.7,149.4,88.4z"/>
			
				<linearGradient id="SVGID_00000098183483016131796650000004331138289395590565_" gradientUnits="userSpaceOnUse" x1="1809.8961" y1="-829.7586" x2="1972.5854" y2="-829.7586" gradientTransform="matrix(0.9525 -0.3044 0.3044 0.9525 -1451.6016 1386.7898)">
				<stop  offset="0" style="stop-color:#996B4B"/>
				<stop  offset="6.585936e-02" style="stop-color:#A87755"/>
				<stop  offset="0.1531" style="stop-color:#BA8861"/>
				<stop  offset="0.199" style="stop-color:#C28F65"/>
				<stop  offset="0.5039" style="stop-color:#C19573"/>
				<stop  offset="1" style="stop-color:#996B4B"/>
			</linearGradient>
			<path style="fill:url(#SVGID_00000098183483016131796650000004331138289395590565_);" d="M192.1,74.7L115,242.8l-29.2,9.3L163,84
				c4.8-17.6-1.2-36.4-15.3-48L-46.2-161.2l29.2-9.3L176.8,26.7C190.9,38.3,196.9,57.1,192.1,74.7z"/>
			
				<linearGradient id="SVGID_00000082341239058162845390000003468901680189008567_" gradientUnits="userSpaceOnUse" x1="1571.8521" y1="-830.7891" x2="1853.127" y2="-830.7891" gradientTransform="matrix(0.9525 -0.3044 0.3044 0.9525 -1451.6016 1386.7898)">
				<stop  offset="0" style="stop-color:#996B4B"/>
				<stop  offset="6.585936e-02" style="stop-color:#A87755"/>
				<stop  offset="0.1531" style="stop-color:#BA8861"/>
				<stop  offset="0.199" style="stop-color:#C28F65"/>
				<stop  offset="0.5039" style="stop-color:#C19573"/>
				<stop  offset="1" style="stop-color:#996B4B"/>
			</linearGradient>
			<path style="fill:url(#SVGID_00000082341239058162845390000003468901680189008567_);" d="M78,110.1L0.9,278.2l-108.3,34.6
				c-18.7,6-38.6-4.3-44.6-23L-262.5-55.9c-6-18.7,4.3-38.6,23-44.6l108.3-34.6L62.7,62.1C76.8,73.7,82.8,92.5,78,110.1z"/>
		</g>
		
			<linearGradient id="SVGID_00000100341822512918892350000012914936050622290066_" gradientUnits="userSpaceOnUse" x1="209.0654" y1="-5348.2129" x2="399.3023" y2="-5348.2129" gradientTransform="matrix(-0.8736 0.4866 0.4866 0.8736 3007.1687 4127.5483)">
			<stop  offset="0" style="stop-color:#996B4B"/>
			<stop  offset="6.585936e-02" style="stop-color:#A87755"/>
			<stop  offset="0.1531" style="stop-color:#BA8861"/>
			<stop  offset="0.199" style="stop-color:#C28F65"/>
			<stop  offset="0.5039" style="stop-color:#C19573"/>
			<stop  offset="1" style="stop-color:#996B4B"/>
		</linearGradient>
		
			<path style="opacity:0.2;clip-path:url(#SVGID_00000088838895166016813620000007623206860015983796_);fill:url(#SVGID_00000100341822512918892350000012914936050622290066_);" d="
			M101.3-283.9l175.4,58.8l50.8-28.3l-175.4-58.8c-16.2-8.5-25.8-25.8-24.5-44l-11.3-276.3l-50.8,28.3l11.3,276.3
			C75.6-309.7,85.2-292.4,101.3-283.9z"/>
		
			<linearGradient id="SVGID_00000020395856036840987880000017093599139971010973_" gradientUnits="userSpaceOnUse" x1="281.4951" y1="-5348.2129" x2="444.1844" y2="-5348.2129" gradientTransform="matrix(-0.8736 0.4866 0.4866 0.8736 3007.1687 4127.5483)">
			<stop  offset="0" style="stop-color:#996B4B"/>
			<stop  offset="6.585936e-02" style="stop-color:#A87755"/>
			<stop  offset="0.1531" style="stop-color:#BA8861"/>
			<stop  offset="0.199" style="stop-color:#C28F65"/>
			<stop  offset="0.5039" style="stop-color:#C19573"/>
			<stop  offset="1" style="stop-color:#996B4B"/>
		</linearGradient>
		
			<path style="opacity:0.2;clip-path:url(#SVGID_00000088838895166016813620000007623206860015983796_);fill:url(#SVGID_00000020395856036840987880000017093599139971010973_);" d="
			M62.1-262.1l175.4,58.8l26.7-14.9L88.9-277c-16.2-8.5-25.8-25.8-24.5-44L53.1-597.3l-26.7,14.9l11.3,276.3
			C36.4-287.8,46-270.6,62.1-262.1z"/>
		
			<linearGradient id="SVGID_00000004525928831068620360000002351181957930044816_" gradientUnits="userSpaceOnUse" x1="43.4509" y1="-5349.2437" x2="324.7259" y2="-5349.2437" gradientTransform="matrix(-0.8736 0.4866 0.4866 0.8736 3007.1687 4127.5483)">
			<stop  offset="0" style="stop-color:#996B4B"/>
			<stop  offset="6.585936e-02" style="stop-color:#A87755"/>
			<stop  offset="0.1531" style="stop-color:#BA8861"/>
			<stop  offset="0.199" style="stop-color:#C28F65"/>
			<stop  offset="0.5039" style="stop-color:#C19573"/>
			<stop  offset="1" style="stop-color:#996B4B"/>
		</linearGradient>
		
			<path style="opacity:0.2;clip-path:url(#SVGID_00000088838895166016813620000007623206860015983796_);fill:url(#SVGID_00000004525928831068620360000002351181957930044816_);" d="
			M166-321.1l175.4,58.8l99.3-55.3c17.1-9.5,23.3-31.1,13.7-48.3L277.8-683c-9.5-17.1-31.1-23.3-48.3-13.7l-99.3,55.3l11.3,276.3
			C140.2-346.9,149.8-329.6,166-321.1z"/>
	</g>
	<g style="clip-path:url(#SVGID_00000067200515335855708670000015757155518310400939_);">
		<rect x="170.3" y="540.9" class="st9" width="0.9" height="26.3"/>
	</g>
	<g style="clip-path:url(#SVGID_00000067200515335855708670000015757155518310400939_);">
		<g>
			<g>
				<path class="st10" d="M31,81.5c0-9.9,4.5-14.8,13.5-14.8c0,1.5-0.3,2.6-0.9,3.3c-0.3,0.3-0.6,0.5-0.9,0.6s-0.8,0.3-1.3,0.4
					c-0.5,0.1-0.9,0.2-1.1,0.3c-1.4,0.5-2.5,1.3-3.3,2.5c-0.8,1.2-1.3,2.3-1.6,3.5c-0.2,1.2-0.3,2.6-0.3,4.2c0,3.7,0.7,6.5,2.2,8.3
					s3.9,2.7,7.2,2.7s5.7-0.9,7.2-2.7c1.5-1.8,2.2-4.6,2.2-8.3c0-3.6-0.7-6.4-2.2-8.1c-1.4-1.8-3.8-2.7-7.2-2.6
					c0.9-0.8,1.4-2.1,1.3-4c8.1,0.6,12.1,5.5,12.1,14.8c0,4.7-1.1,8.4-3.3,11s-5.6,3.9-10.1,3.9c-4.5,0-7.9-1.3-10.1-3.9
					C32.1,89.9,31,86.2,31,81.5z"/>
				<path class="st10" d="M77.1,86h0.1l7.1-19h6.5v29H87V70.4H87l-7.2,18.7h-5.2l-7.1-18.7h-0.1V96h-3.8V67h6.6L77.1,86z"/>
				<path class="st10" d="M108.3,84.2h4.9l-5-14l-4.8,13.1c-1.9,0.3-3.5,1-4.7,2.1l6.7-18.4h5.9l10.6,29h-4.3l-2.9-8h-6.4
					c-2.5,0-4.3,0.3-5.3,0.8c-1,0.5-1.9,1.7-2.6,3.5L99.1,96h-4.2l1.8-5c1.1-2.7,2.4-4.6,4.1-5.5C102.4,84.6,104.9,84.2,108.3,84.2z
					"/>
				<path class="st10" d="M145.1,92.2L145.1,92.2l0.1-25.2h3.8v29h-6l-13.4-25.3h-0.1V96h-3.8V67h6.1L145.1,92.2z"/>
			</g>
		</g>
		<g>
			<path class="st10" d="M32.9,110.5h4.5v0.5h-5.1v-9.2h4.9v0.5h-4.3v3.7h4v0.5h-4V110.5z"/>
			<path class="st10" d="M45.4,101.9h0.5v9.2h-0.5l-5-7.4l-0.6-0.9c0,0.5,0,0.9,0,1.4v7h-0.5v-9.2h0.6l4.9,7.3l0.6,0.9
				c0-0.5,0-0.9,0-1.4V101.9z"/>
			<path class="st10" d="M55.5,106.3c0,2.9-1.7,4.7-4.5,4.7h-2.5v-9.2h2.6C53.9,101.9,55.5,103.5,55.5,106.3z M51,110.5
				c2.4,0,3.9-1.5,3.9-4.1c0-2.5-1.4-4-3.8-4h-2v8.1H51z"/>
			<path class="st10" d="M58,110.5h4.4v0.5h-5v-9.2H58V110.5z"/>
			<path class="st10" d="M64.4,110.5h4.5v0.5h-5.1v-9.2h4.9v0.5h-4.3v3.7h4v0.5h-4V110.5z"/>
			<path class="st10" d="M70.1,110.5l0.2-0.6c0.7,0.5,1.6,0.8,2.7,0.8c1.4,0,2.3-0.7,2.3-1.7c0-0.8-0.3-1.4-1.7-2l-1.1-0.4
				c-1.6-0.7-2.1-1.4-2.1-2.5c0-1.4,1.1-2.3,2.7-2.3c0.9,0,1.7,0.2,2.3,0.5v0.6c-0.7-0.4-1.5-0.6-2.3-0.6c-1.3,0-2.2,0.6-2.2,1.7
				c0,0.9,0.4,1.4,1.8,2l1,0.4c1.5,0.6,2.1,1.3,2.1,2.5c0,1.4-1,2.3-2.9,2.3C71.8,111.2,71,111,70.1,110.5z"/>
			<path class="st10" d="M76.8,110.5l0.2-0.6c0.7,0.5,1.6,0.8,2.7,0.8c1.4,0,2.3-0.7,2.3-1.7c0-0.8-0.3-1.4-1.7-2l-1.1-0.4
				c-1.6-0.7-2.1-1.4-2.1-2.5c0-1.4,1.1-2.3,2.7-2.3c0.9,0,1.7,0.2,2.3,0.5v0.6c-0.7-0.4-1.5-0.6-2.3-0.6c-1.3,0-2.2,0.6-2.2,1.7
				c0,0.9,0.4,1.4,1.8,2l1,0.4c1.5,0.6,2.1,1.3,2.1,2.5c0,1.4-1,2.3-2.9,2.3C78.5,111.2,77.7,111,76.8,110.5z"/>
			<path class="st10" d="M93.8,101.9h0.6v9.2h-0.6v-4.5h-5.3v4.5H88v-9.2h0.6v4.2h5.3V101.9z"/>
			<path class="st10" d="M96.3,106.6c0-2.9,1.7-4.9,4.4-4.9c2.6,0,4.2,1.8,4.2,4.7c0,2.9-1.7,4.9-4.4,4.9
				C98,111.2,96.3,109.5,96.3,106.6z M104.3,106.5c0-2.6-1.4-4.2-3.7-4.2c-2.2,0-3.7,1.7-3.7,4.2c0,2.6,1.4,4.2,3.7,4.2
				C102.8,110.7,104.3,108.9,104.3,106.5z"/>
			<path class="st10" d="M112.8,111h-0.7l-2.9-4h-0.1h-1.7v4h-0.6v-9.2h2.3c2.2,0,3.4,0.8,3.4,2.5c0,1.5-1,2.5-2.6,2.6L112.8,111z
				 M107.4,102.4v4.1h1.7c1.8,0,2.9-0.7,2.9-2.1c0-1.3-1-2-2.8-2H107.4z"/>
			<path class="st10" d="M114.5,111v-9.2h0.6v9.2H114.5z"/>
			<path class="st10" d="M117.6,110.5h5.5v0.5h-6.2v-0.5l5.1-8.2h-4.9v-0.5h5.6v0.5L117.6,110.5z"/>
			<path class="st10" d="M123.6,106.6c0-2.9,1.7-4.9,4.4-4.9c2.6,0,4.2,1.8,4.2,4.7c0,2.9-1.7,4.9-4.4,4.9
				C125.3,111.2,123.6,109.5,123.6,106.6z M131.7,106.5c0-2.6-1.4-4.2-3.7-4.2c-2.2,0-3.7,1.7-3.7,4.2c0,2.6,1.4,4.2,3.7,4.2
				C130.1,110.7,131.7,108.9,131.7,106.5z"/>
			<path class="st10" d="M140.2,101.9h0.5v9.2h-0.5l-5-7.4l-0.6-0.9c0,0.5,0,0.9,0,1.4v7h-0.5v-9.2h0.6l4.9,7.3l0.6,0.9
				c0-0.5,0-0.9,0-1.4V101.9z"/>
			<path class="st10" d="M142.6,110.5l0.2-0.6c0.7,0.5,1.6,0.8,2.7,0.8c1.4,0,2.3-0.7,2.3-1.7c0-0.8-0.3-1.4-1.7-2l-1.1-0.4
				c-1.6-0.7-2.1-1.4-2.1-2.5c0-1.4,1.1-2.3,2.7-2.3c0.9,0,1.7,0.2,2.3,0.5v0.6c-0.7-0.4-1.5-0.6-2.3-0.6c-1.3,0-2.2,0.6-2.2,1.7
				c0,0.9,0.4,1.4,1.8,2l1,0.4c1.5,0.6,2.1,1.3,2.1,2.5c0,1.4-1,2.3-2.9,2.3C144.3,111.2,143.5,111,142.6,110.5z"/>
		</g>
	</g>
</g>
</svg>
